{"title":"Mortal Kombat Legacy Season 1 BDRip XviD - DiGrX","uid":9230515,"size":1187150225,"categoryP":"video","categoryS":"tv_shows","magnet":"?xt=urn:btih:ca72cedd6d1eba5668178c84a8bac6495784d7d1&amp;dn=Mortal+Kombat+Legacy+Season+1+BDRip+XviD+-+DiGrX&amp;tr=udp%3A%2F%2Ftracker.openbittorrent.com%3A80&amp;tr=udp%3A%2F%2Fopen.demonii.com%3A1337&amp;tr=udp%3A%2F%2Ftracker.coppersurfer.tk%3A6969&amp;tr=udp%3A%2F%2Fexodus.desync.com%3A6969","seeders":23,"leechers":3,"uploader":"dimigeor","files":10,"time":1385064150,"description":"A DiGrX release\n\n\nMortal Kombat Legacy Season 1 BDRip XviD - DiGrX\n\nAll episodes in XviD from BDRip, plus extra second Audio AC3 with 6 Channels\n\nCodec ID, Format: XVID, MPEG-4\nAspect ratio, Dimension: 16:9, 720x406\nAudio: MP3, 2 Channels\n2nd Audio: AC3, 6 Channels\n\n\n-----------------------------------------------------------------------------------\n\n\nEpisode 1 example:\n\nGeneral\nComplete name                            : 1x01 Mortal Kombat Legacy - Jax  Sonya and Kano (Part 1) BDRip.avi\nFormat                                   : AVI\nFormat/Info                              : Audio Video Interleave\nFile size                                : 159 MiB\nDuration                                 : 12mn 18s\nOverall bit rate mode                    : Variable\nOverall bit rate                         : 1 805 Kbps\n\nVideo\nID                                       : 0\nFormat                                   : MPEG-4 Visual\nFormat profile                           : Simple@L3\nFormat settings, BVOP                    : No\nFormat settings, QPel                    : No\nFormat settings, GMC                     : No warppoints\nFormat settings, Matrix                  : Default (H.263)\nCodec ID                                 : XVID\nCodec ID/Hint                            : XviD\nDuration                                 : 12mn 18s\nBit rate                                 : 1 211 Kbps\nWidth                                    : 720 pixels\nHeight                                   : 406 pixels\nDisplay aspect ratio                     : 16:9\nFrame rate                               : 23.976 fps\nColor space                              : YUV\nChroma subsampling                       : 4:2:0\nBit depth                                : 8 bits\nScan type                                : Progressive\nCompression mode                         : Lossy\nBits/(Pixel*Frame)                       : 0.173\nStream size                              : 107 MiB (67%)\nWriting library                          : XviD 63\n\nAudio #1\nID                                       : 1\nFormat                                   : MPEG Audio\nFormat version                           : Version 1\nFormat profile                           : Layer 3\nMode                                     : Joint stereo\nMode extension                           : MS Stereo\nCodec ID                                 : 55\nCodec ID/Hint                            : MP3\nDuration                                 : 12mn 18s\nBit rate mode                            : Variable\nBit rate                                 : 122 Kbps\nChannel(s)                               : 2 channels\nSampling rate                            : 48.0 KHz\nCompression mode                         : Lossy\nStream size                              : 10.8 MiB (7%)\nAlignment                                : Aligned on interleaves\nInterleave, duration                     : 24 ms (0.58 video frame)\nWriting library                          : LAME3.98.4\n\nAudio #2\nID                                       : 2\nFormat                                   : AC-3\nFormat/Info                              : Audio Coding 3\nMode extension                           : CM (complete main)\nCodec ID                                 : 2000\nDuration                                 : 12mn 18s\nBit rate mode                            : Constant\nBit rate                                 : 448 Kbps\nChannel(s)                               : 6 channels\nChannel positions                        : Front: L C R, Side: L R, LFE\nSampling rate                            : 48.0 KHz\nBit depth                                : 16 bits\nCompression mode                         : Lossy\nStream size                              : 39.4 MiB (25%)\nAlignment                                : Aligned on interleaves\nInterleave, duration                     : 32 ms (0.77 video frame)\n\n","torrent":{"xt":"urn:btih:ca72cedd6d1eba5668178c84a8bac6495784d7d1","amp;dn":"Mortal+Kombat+Legacy+Season+1+BDRip+XviD+-+DiGrX","amp;tr":["udp%3A%2F%2Ftracker.openbittorrent.com%3A80","udp%3A%2F%2Fopen.demonii.com%3A1337","udp%3A%2F%2Ftracker.coppersurfer.tk%3A6969","udp%3A%2F%2Fexodus.desync.com%3A6969"],"infoHash":"ca72cedd6d1eba5668178c84a8bac6495784d7d1","infoHashBuffer":{"type":"Buffer","data":[202,114,206,221,109,30,186,86,104,23,140,132,168,186,198,73,87,132,215,209]},"announce":[],"urlList":[]}}